<svg width="21" height="20" viewBox="0 0 21 20" fill="none" xmlns="http://www.w3.org/2000/svg">
<path d="M15.8334 5.51667C15.7488 5.31304 15.587 5.15123 15.3834 5.06667C15.2832 5.02397 15.1756 5.00132 15.0667 5H6.73337C6.51235 5 6.30039 5.0878 6.14411 5.24408C5.98783 5.40036 5.90003 5.61232 5.90003 5.83333C5.90003 6.05435 5.98783 6.26631 6.14411 6.42259C6.30039 6.57887 6.51235 6.66667 6.73337 6.66667H13.0584L6.1417 13.575C6.06359 13.6525 6.0016 13.7446 5.95929 13.8462C5.91698 13.9477 5.8952 14.0567 5.8952 14.1667C5.8952 14.2767 5.91698 14.3856 5.95929 14.4871C6.0016 14.5887 6.06359 14.6809 6.1417 14.7583C6.21917 14.8364 6.31134 14.8984 6.41289 14.9407C6.51444 14.983 6.62336 15.0048 6.73337 15.0048C6.84338 15.0048 6.9523 14.983 7.05385 14.9407C7.1554 14.8984 7.24757 14.8364 7.32503 14.7583L14.2334 7.84167V14.1667C14.2334 14.3877 14.3212 14.5996 14.4774 14.7559C14.6337 14.9122 14.8457 15 15.0667 15C15.2877 15 15.4997 14.9122 15.656 14.7559C15.8122 14.5996 15.9 14.3877 15.9 14.1667V5.83333C15.8987 5.72444 15.8761 5.61685 15.8334 5.51667Z" fill="white"/>
</svg>
