<svg width="36" height="36" viewBox="0 0 36 36" fill="none" xmlns="http://www.w3.org/2000/svg">
<circle cx="18" cy="18" r="17.5" fill="white" stroke="#B4BAD6"/>
<path d="M21.5407 17.2895L15.8807 11.6395C15.7878 11.5458 15.6772 11.4714 15.5553 11.4207C15.4334 11.3699 15.3027 11.3438 15.1707 11.3438C15.0387 11.3438 14.908 11.3699 14.7861 11.4207C14.6643 11.4714 14.5537 11.5458 14.4607 11.6395C14.2745 11.8269 14.1699 12.0804 14.1699 12.3445C14.1699 12.6087 14.2745 12.8622 14.4607 13.0495L19.4107 18.0495L14.4607 22.9995C14.2745 23.1869 14.1699 23.4404 14.1699 23.7045C14.1699 23.9687 14.2745 24.2222 14.4607 24.4095C14.5533 24.504 14.6638 24.5792 14.7856 24.6307C14.9075 24.6822 15.0384 24.709 15.1707 24.7095C15.303 24.709 15.4339 24.6822 15.5558 24.6307C15.6777 24.5792 15.7881 24.504 15.8807 24.4095L21.5407 18.7595C21.6422 18.6659 21.7232 18.5523 21.7786 18.4258C21.834 18.2993 21.8626 18.1627 21.8626 18.0245C21.8626 17.8864 21.834 17.7498 21.7786 17.6233C21.7232 17.4968 21.6422 17.3832 21.5407 17.2895Z" fill="#767FAD"/>
</svg>
