<svg width="36" height="36" viewBox="0 0 36 36" fill="none" xmlns="http://www.w3.org/2000/svg">
<circle cx="18" cy="18" r="17.5" transform="rotate(180 18 18)" fill="white" stroke="#B4BAD6"/>
<path d="M14.4593 18.7105L20.1193 24.3605C20.2122 24.4542 20.3228 24.5286 20.4447 24.5793C20.5666 24.6301 20.6973 24.6563 20.8293 24.6563C20.9613 24.6563 21.092 24.6301 21.2139 24.5793C21.3357 24.5286 21.4463 24.4542 21.5393 24.3605C21.7255 24.1731 21.8301 23.9196 21.8301 23.6555C21.8301 23.3913 21.7255 23.1378 21.5393 22.9505L16.5893 17.9505L21.5393 13.0005C21.7255 12.8131 21.8301 12.5596 21.8301 12.2955C21.8301 12.0313 21.7255 11.7778 21.5393 11.5905C21.4467 11.496 21.3362 11.4208 21.2143 11.3693C21.0925 11.3178 20.9616 11.291 20.8293 11.2905C20.697 11.291 20.5661 11.3178 20.4442 11.3693C20.3223 11.4208 20.2119 11.496 20.1193 11.5905L14.4593 17.2405C14.3578 17.3341 14.2768 17.4477 14.2214 17.5742C14.166 17.7007 14.1374 17.8374 14.1374 17.9755C14.1374 18.1136 14.166 18.2502 14.2214 18.3767C14.2768 18.5032 14.3578 18.6168 14.4593 18.7105Z" fill="#767FAD"/>
</svg>
