<svg width="16" height="16" viewBox="0 0 16 16" fill="none" xmlns="http://www.w3.org/2000/svg">
<path fill-rule="evenodd" clip-rule="evenodd" d="M15.1111 1.77778H14.0705C13.7044 0.742053 12.7166 0 11.5556 0C10.3945 0 9.40667 0.742053 9.04062 1.77778H0.888889C0.397973 1.77778 0 2.17575 0 2.66667C0 3.15758 0.397973 3.55556 0.888889 3.55556H9.04062C9.40667 4.59128 10.3945 5.33333 11.5556 5.33333C12.7166 5.33333 13.7044 4.59128 14.0705 3.55556H15.1111C15.602 3.55556 16 3.15758 16 2.66667C16 2.17575 15.602 1.77778 15.1111 1.77778ZM11.5556 3.55556C12.0465 3.55556 12.4444 3.15758 12.4444 2.66667C12.4444 2.17575 12.0465 1.77778 11.5556 1.77778C11.0646 1.77778 10.6667 2.17575 10.6667 2.66667C10.6667 3.15758 11.0646 3.55556 11.5556 3.55556ZM0 8C0 7.50907 0.397973 7.11111 0.888889 7.11111H1.92952C2.29559 6.07539 3.28336 5.33333 4.44444 5.33333C5.60553 5.33333 6.59333 6.07539 6.95938 7.11111H15.1111C15.602 7.11111 16 7.50907 16 8C16 8.49093 15.602 8.88889 15.1111 8.88889H6.95938C6.59333 9.92462 5.60553 10.6667 4.44444 10.6667C3.28336 10.6667 2.29559 9.92462 1.92952 8.88889H0.888889C0.397973 8.88889 0 8.49093 0 8ZM4.44444 8.88889C4.93537 8.88889 5.33333 8.49093 5.33333 8C5.33333 7.50907 4.93537 7.11111 4.44444 7.11111C3.95353 7.11111 3.55556 7.50907 3.55556 8C3.55556 8.49093 3.95353 8.88889 4.44444 8.88889ZM0.888889 12.4444C0.397973 12.4444 0 12.8424 0 13.3333C0 13.8243 0.397973 14.2222 0.888889 14.2222H9.04062C9.40667 15.258 10.3945 16 11.5556 16C12.7166 16 13.7044 15.258 14.0705 14.2222H15.1111C15.602 14.2222 16 13.8243 16 13.3333C16 12.8424 15.602 12.4444 15.1111 12.4444H14.0705C13.7044 11.4087 12.7166 10.6667 11.5556 10.6667C10.3945 10.6667 9.40667 11.4087 9.04062 12.4444H0.888889ZM12.4444 13.3333C12.4444 13.8243 12.0465 14.2222 11.5556 14.2222C11.0646 14.2222 10.6667 13.8243 10.6667 13.3333C10.6667 12.8424 11.0646 12.4444 11.5556 12.4444C12.0465 12.4444 12.4444 12.8424 12.4444 13.3333Z" fill="#2E334C"/>
</svg>