<svg width="25" height="25" viewBox="0 0 25 25" fill="none" xmlns="http://www.w3.org/2000/svg">
<path d="M16.0656 11.8452H8.06555C7.93422 11.8452 7.80417 11.8194 7.68283 11.7692C7.56149 11.7189 7.45123 11.6453 7.35837 11.5524C7.2655 11.4595 7.19185 11.3493 7.1416 11.2279C7.09136 11.1066 7.06552 10.9765 7.06555 10.8452V7.84521C7.06555 6.51913 7.59234 5.24736 8.53002 4.30968C9.4677 3.372 10.7395 2.84521 12.0656 2.84521C13.3916 2.84521 14.6634 3.372 15.6011 4.30968C16.5388 5.24736 17.0656 6.51913 17.0656 7.84521V10.8452C17.0656 10.9765 17.0397 11.1066 16.9895 11.2279C16.9393 11.3493 16.8656 11.4595 16.7727 11.5524C16.6799 11.6453 16.5696 11.7189 16.4483 11.7692C16.3269 11.8194 16.1969 11.8452 16.0656 11.8452ZM9.06555 9.84521H15.0656V7.84521C15.0656 7.04957 14.7495 6.2865 14.1869 5.72389C13.6243 5.16129 12.8612 4.84521 12.0656 4.84521C11.2699 4.84521 10.5068 5.16129 9.94423 5.72389C9.38162 6.2865 9.06555 7.04957 9.06555 7.84521V9.84521Z" fill="#E7B549"/>
<path d="M17.0656 9.84521H7.06555C5.4087 9.84521 4.06555 11.1884 4.06555 12.8452V19.8452C4.06555 21.5021 5.4087 22.8452 7.06555 22.8452H17.0656C18.7224 22.8452 20.0656 21.5021 20.0656 19.8452V12.8452C20.0656 11.1884 18.7224 9.84521 17.0656 9.84521Z" fill="#E7B549"/>
</svg>
