<svg width="16" height="15" viewBox="0 0 16 15" fill="none" xmlns="http://www.w3.org/2000/svg">
<path d="M6.64039 1.53105C7.15967 1.89047 7.58996 2.38582 8.00001 3.01904C8.41006 2.38581 8.84036 1.89047 9.35964 1.53105C10.0183 1.07513 10.7999 0.847168 11.8335 0.847168C12.9769 0.847168 14.0151 1.25072 14.7688 1.90284C15.5294 2.56085 16 3.47038 16 4.47504C16 6.21487 15.0114 7.93524 13.5286 9.64581C12.079 11.318 10.152 12.9853 8.22505 14.6525L8 14.8472L7.77495 14.6525C5.84797 12.9853 3.92097 11.318 2.47139 9.64581C0.988572 7.93524 0 6.21487 0 4.47504C0 3.47037 0.470647 2.56084 1.23119 1.90284C1.98492 1.25071 3.02308 0.847178 4.1665 0.847178C5.20011 0.847178 5.98171 1.07513 6.64039 1.53105Z" fill="#D32F2F"/>
</svg>
